<?xml version="1.0" encoding="UTF-8" standalone="no"?>
<!-- Created with Inkscape (http://www.inkscape.org/) -->

<svg
   width="52.91666mm"
   height="53.147659mm"
   viewBox="0 0 52.91666 53.147659"
   version="1.1"
   id="svg5"
   inkscape:version="1.2.2 (b0a8486541, 2022-12-01)"
   sodipodi:docname="logo.svg"
   xmlns:inkscape="http://www.inkscape.org/namespaces/inkscape"
   xmlns:sodipodi="http://sodipodi.sourceforge.net/DTD/sodipodi-0.dtd"
   xmlns:xlink="http://www.w3.org/1999/xlink"
   xmlns="http://www.w3.org/2000/svg"
   xmlns:svg="http://www.w3.org/2000/svg">
  <sodipodi:namedview
     id="namedview7"
     pagecolor="#ffffff"
     bordercolor="#000000"
     borderopacity="0.25"
     inkscape:showpageshadow="2"
     inkscape:pageopacity="0.0"
     inkscape:pagecheckerboard="0"
     inkscape:deskcolor="#d1d1d1"
     inkscape:document-units="mm"
     showgrid="false"
     inkscape:zoom="0.69664703"
     inkscape:cx="110.52943"
     inkscape:cy="655.99936"
     inkscape:window-width="1920"
     inkscape:window-height="1011"
     inkscape:window-x="0"
     inkscape:window-y="0"
     inkscape:window-maximized="1"
     inkscape:current-layer="layer1" />
  <defs
     id="defs2">
    <linearGradient
       inkscape:collect="always"
       id="linearGradient357">
      <stop
         style="stop-color:#312d59;stop-opacity:1;"
         offset="0"
         id="stop353" />
      <stop
         style="stop-color:#adbcf4;stop-opacity:1;"
         offset="1"
         id="stop355" />
    </linearGradient>
    <linearGradient
       inkscape:collect="always"
       xlink:href="#linearGradient357"
       id="linearGradient359"
       x1="155.92677"
       y1="63.519295"
       x2="45.824688"
       y2="179.37617"
       gradientUnits="userSpaceOnUse"
       gradientTransform="matrix(0.44837748,0,0,0.44837748,42.286937,76.768034)" />
  </defs>
  <g
     inkscape:label="Camada 1"
     inkscape:groupmode="layer"
     id="layer1"
     transform="translate(-61.973997,-105.0614)">
    <!--!Font Awesome Free 6.6.0 by @fontawesome - https://fontawesome.com License - https://fontawesome.com/license/free Copyright 2024 Fonticons, Inc.-->
    <path
       d="m 114.89066,110.75577 v 5.6944 c 0,2.09981 -1.69645,3.79625 -3.79626,3.79625 h -1.89813 -5.6944 v -9.49065 c 0,-3.14379 2.55061,-5.69438 5.6944,-5.69438 3.14378,0 5.69439,2.55059 5.69439,5.69438 z m -13.28692,-5.69438 c -1.18633,1.58969 -1.898131,3.559 -1.898131,5.69438 v 36.0645 c 0,4.18778 -3.404772,7.59253 -7.592525,7.59253 -4.18775,0 -7.592525,-3.40475 -7.592525,-7.59253 v -0.62875 c 0,-3.84372 -3.12005,-6.96379 -6.963766,-6.96379 h -4.194012 v -22.77756 c 0,-6.28756 5.101225,-11.38878 11.388787,-11.38878 z m -26.342828,53.14766 c -7.343394,0 -13.286919,-5.9435 -13.286919,-13.28691 0,-1.04397 0.854159,-1.89812 1.898131,-1.89812 h 13.684669 c 1.743907,0 3.167503,1.41171 3.167503,3.1675 v 0.62875 c 0,6.28756 5.101232,11.38878 11.388788,11.38878 H 86.6497 Z"
       id="path9"
       style="fill:url(#linearGradient359);fill-opacity:1;stroke-width:0.118633"
       sodipodi:nodetypes="sssccssscsssssscsscssssssccs"
       inkscape:export-filename="logo.png"
       inkscape:export-xdpi="96"
       inkscape:export-ydpi="96" />
  </g>
</svg>
